<?xml version="1.0" standalone="no"?>
<!DOCTYPE svg PUBLIC "-//W3C//DTD SVG 20010904//EN"
 "http://www.w3.org/TR/2001/REC-SVG-20010904/DTD/svg10.dtd">
<svg version="1.0" xmlns="http://www.w3.org/2000/svg"
 width="1200.000000pt" height="572.000000pt" viewBox="0 0 1200.000000 572.000000"
 preserveAspectRatio="xMidYMid meet">
<metadata>
Created by potrace 1.16, written by Peter Selinger 2001-2019
</metadata>
<g transform="translate(0.000000,572.000000) scale(0.100000,-0.100000)"
fill="#000000" stroke="none">
<path d="M2525 5249 c-194 -28 -386 -134 -490 -269 -170 -221 -191 -475 -62
-745 48 -98 88 -151 250 -324 59 -62 107 -119 107 -126 0 -7 -7 -16 -16 -19
-9 -3 -429 -6 -935 -6 l-919 0 0 -410 0 -411 1183 3 1182 3 70 24 c209 70 347
187 431 364 48 103 64 164 71 287 10 177 -35 340 -130 472 -25 35 -113 136
-197 226 -83 89 -148 167 -145 172 4 6 198 10 536 10 l529 0 0 -780 0 -780
415 0 415 0 0 780 0 780 500 0 500 0 0 380 0 380 -1617 -1 c-890 -1 -1645 -5
-1678 -10z"/>
<path d="M6183 5252 c-10 -6 -147 -452 -596 -1942 -57 -190 -102 -351 -99
-358 3 -10 95 -12 430 -10 l425 3 51 163 50 162 390 -2 389 -3 52 -160 51
-160 417 -3 c350 -2 418 0 423 12 3 7 -42 166 -100 352 -495 1598 -599 1931
-608 1942 -8 9 -148 12 -637 12 -344 0 -631 -4 -638 -8z m750 -1025 c48 -155
87 -290 87 -300 0 -15 -16 -17 -174 -17 -114 0 -177 4 -181 11 -7 11 166 589
176 589 3 0 45 -127 92 -283z"/>
<path d="M8312 4103 l3 -1158 458 -3 457 -2 0 327 0 327 273 -271 c411 -408
322 -383 1325 -383 l712 0 0 415 0 415 -609 2 c-583 3 -610 4 -630 22 -12 11
-21 24 -21 30 0 6 33 31 73 56 109 68 226 189 270 280 56 115 71 185 71 335 1
154 -11 208 -70 332 -35 74 -59 107 -121 171 -120 121 -230 184 -410 234 -77
22 -91 22 -931 25 l-852 4 2 -1158z m1489 464 c67 -44 87 -127 46 -188 -44
-66 -61 -69 -347 -67 l-255 3 -3 138 -3 137 264 0 c258 0 265 -1 298 -23z"/>
<path d="M466 2772 c-5 -8 681 -2240 703 -2290 l11 -22 387 2 387 3 135 434
c74 238 137 428 140 420 2 -7 61 -202 131 -433 l127 -421 391 -3 392 -2 10 22
c16 37 681 2230 687 2266 l6 32 -440 0 -440 0 -88 -300 c-49 -165 -92 -296
-96 -292 -4 4 -27 72 -52 152 -25 80 -66 211 -92 293 l-46 147 -482 -2 -482
-3 -77 -275 c-42 -151 -80 -288 -85 -304 -7 -25 -22 17 -98 275 l-90 304 -467
3 c-257 1 -469 -1 -472 -6z"/>
<path d="M4355 2768 c-4 -11 -424 -1398 -631 -2084 -31 -105 -54 -199 -51
-208 6 -15 45 -16 429 -14 l422 3 52 165 51 165 388 0 389 0 50 -157 c28 -87
56 -162 62 -168 7 -7 148 -9 419 -8 376 3 410 4 413 20 2 12 -598 1973 -690
2253 l-13 40 -643 3 c-509 2 -644 0 -647 -10z m789 -1110 c45 -146 60 -210 53
-217 -13 -13 -325 -15 -346 -2 -14 9 7 83 126 461 l46 145 29 -90 c16 -49 57
-183 92 -297z"/>
<path d="M6542 1623 l3 -1158 458 -3 457 -2 0 327 0 327 273 -271 c298 -296
313 -307 484 -356 l78 -22 980 0 980 0 80 23 c135 37 219 86 316 182 152 151
215 318 206 545 -10 247 -62 345 -341 644 -74 80 -133 148 -130 153 3 4 264 8
580 8 l574 0 0 380 0 381 -792 -3 c-785 -3 -794 -4 -863 -26 -255 -80 -422
-231 -498 -451 -54 -157 -48 -307 22 -486 43 -112 87 -173 245 -345 91 -99
136 -156 132 -166 -5 -13 -81 -14 -615 -12 -596 3 -610 3 -637 23 -15 12 -27
25 -27 30 0 6 33 32 74 60 95 63 217 185 256 255 62 110 84 206 84 366 0 132
-18 221 -66 319 -93 191 -282 339 -520 407 l-80 23 -858 3 -857 3 2 -1158z
m1443 486 c21 -6 54 -26 72 -44 30 -30 33 -39 33 -90 0 -53 -3 -60 -39 -96
l-39 -39 -271 0 -271 0 0 133 c0 74 3 137 7 140 11 12 465 8 508 -4z"/>
</g>
</svg>
